PathFileType	4	(X/Y/Z)	C:\Users\Biomechanik\SynologyDrive\AlexP\Athlete_03\Athlete_3_25_03_31\Squat_bar_01\marker_experimental.trc
DataRate	CameraRate	NumFrames	NumMarkers	Units	OrigDataRate	OrigDataStartFrame	OrigNumFrames
200.000000	200.000000	4	55	mm	200.000000	421	482
Frame#	Time	BL			BR			GLAB			RFHD			LFHD			C7			T6			SPINMOL			SPINM2			SPINM3			T12			BELTOL			BELT2			BELT3			SACROL			SACR2			SACR3			LTHOL			LTH2			LTH3			LSHAOL			LSHA2			LSHA3			LHEE			LTOE			LM5			RTHOL			RTH2			RTH3			RSHAOL			RSHA2			RSHA3			RHEE			RTOE			RM5			STRN			XIPH			LACR			LUAOL			LUA2			LUA3			LLAOL			LLA2			LLA3			LWRR			LWRU			RACR			RUAOL			RUA2			RUA3			RLAOL			RLA2			RLA3			RWRR			RWRU			
		X1	Y1	Z1	X2	Y2	Z2	X3	Y3	Z3	X4	Y4	Z4	X5	Y5	Z5	X6	Y6	Z6	X7	Y7	Z7	X8	Y8	Z8	X9	Y9	Z9	X10	Y10	Z10	X11	Y11	Z11	X12	Y12	Z12	X13	Y13	Z13	X14	Y14	Z14	X15	Y15	Z15	X16	Y16	Z16	X17	Y17	Z17	X18	Y18	Z18	X19	Y19	Z19	X20	Y20	Z20	X21	Y21	Z21	X22	Y22	Z22	X23	Y23	Z23	X24	Y24	Z24	X25	Y25	Z25	X26	Y26	Z26	X27	Y27	Z27	X28	Y28	Z28	X29	Y29	Z29	X30	Y30	Z30	X31	Y31	Z31	X32	Y32	Z32	X33	Y33	Z33	X34	Y34	Z34	X35	Y35	Z35	X36	Y36	Z36	X37	Y37	Z37	X38	Y38	Z38	X39	Y39	Z39	X40	Y40	Z40	X41	Y41	Z41	X42	Y42	Z42	X43	Y43	Z43	X44	Y44	Z44	X45	Y45	Z45	X46	Y46	Z46	X47	Y47	Z47	X48	Y48	Z48	X49	Y49	Z49	X50	Y50	Z50	X51	Y51	Z51	X52	Y52	Z52	X53	Y53	Z53	X54	Y54	Z54	X55	Y55	Z55	

422	2.105	228.5250396728516	1269.1787109375	-2230.49169921875	217.8709716796875	1318.8408203125	-210.1871490478515	494.2347106933594	1490.329711914062	-1182.668090820312	439.5992431640625	1512.605590820312	-1121.684204101562	451.6614685058594	1509.306518554688	-1257.1650390625	266.2951965332031	1356.445434570312	-1191.641723632812	162.2117156982422	1214.47412109375	-1202.55712890625	146.6391448974609	1186.63427734375	-1222.5791015625	135.7673034667969	1179.959594726562	-1173.804565429688	121.0378799438477	1126.956420898438	-1210.738891601562	101.8879699707031	1071.924072265625	-1212.074462890625	68.46760559082031	1059.4052734375	-1229.41552734375	64.78542327880859	1056.769409179688	-1178.891357421875	34.92733383178711	1005.985229492188	-1209.266723632812	-5.981992721557617	916.1278686523439	-1236.202880859375	-8.202274322509766	913.6864013671876	-1184.780883789062	-25.89126586914062	856.7431640625001	-1213.670532226562	121.8073196411133	637.0422363281251	-1453.767700195312	111.7825317382812	560.0847778320314	-1439.360595703125	148.4225158691406	583.2716674804689	-1465.37890625	172.4441223144531	329.8591613769532	-1547.222412109375	124.9105911254883	269.4083557128907	-1526.018676757812	171.1618347167969	267.6643981933595	-1546.672607421875	110.3805236816406	69.29491424560555	-1465.932006835938	312.8758239746094	50.9046173095704	-1542.574340820312	235.7591094970703	27.00586318969737	-1621.4443359375	82.66992950439453	638.4765625000001	-964.6261596679688	140.4201812744141	623.7700805664062	-911.3071899414062	117.3175430297852	591.9500732421876	-941.5370483398438	130.5257110595703	345.4702758789063	-868.5806274414062	152.5478057861328	272.6250915527344	-849.8546142578125	115.6851043701172	285.8988342285157	-879.7568359375	88.98406219482422	63.82550430297857	-965.621826171875	278.2305297851562	48.81615066528325	-867.4921264648438	188.6709899902344	37.36619567871099	-797.4865112304688	400.3639221191406	1211.73828125	-1194.678955078125	379.1979675292969	1065.032348632812	-1190.940063476562	313.5578918457031	1306.971923828125	-1363.338745117188	198.3741760253906	1192.902709960938	-1453.166625976562	150.4136352539062	1149.444213867188	-1441.366333007812	180.54443359375	1136.153686523438	-1480.30908203125	155.0596313476562	1068.413330078125	-1550.26123046875	226.5043487548828	1063.064697265625	-1584.75390625	198.3146057128906	1104.125732421875	-1575.440185546875	256.3321838378906	1183.220458984375	-1614.674926757812	267.6793823242188	1211.439331054688	-1541.932006835938	319.5194702148438	1306.232543945312	-1030.277465820312	204.6708526611328	1195.54150390625	-947.7337036132811	179.3679351806641	1141.464477539062	-919.9727172851561	157.5227508544922	1153.652465820312	-965.7871093749999	172.1619720458984	1073.088012695312	-836.5492553710936	175.2683410644531	1152.125366210938	-825.3136596679686	210.3976898193359	1116.697143554688	-814.2563476562499	244.8139190673828	1202.351440429688	-793.7380371093749	270.8492431640625	1232.66552734375	-863.4113159179686	
423	2.11	228.0785369873047	1273.280029296875	-2230.37890625	217.5346221923828	1322.998413085938	-210.0757446289062	493.3799743652344	1494.837524414062	-1182.56494140625	438.7240295410156	1517.099731445312	-1121.596313476562	450.7821655273438	1513.7685546875	-1257.050537109375	265.640380859375	1360.634155273438	-1191.558837890625	162.0210418701172	1218.059326171875	-1202.461547851562	146.597900390625	1190.047485351562	-1222.455810546875	135.6934204101562	1183.340209960938	-1173.720703125	121.2855606079102	1130.237060546875	-1210.602905273438	102.3976135253906	1075.065551757812	-1211.980590820312	69.08386993408203	1062.44921875	-1229.389892578125	65.40821075439453	1059.78125	-1178.868530273438	35.7874755859375	1008.855163574219	-1209.254516601562	-4.666840076446533	919.2823486328126	-1236.18798828125	-6.938259601593018	916.8140258789064	-1184.767211914062	-24.59443283081055	859.8842163085939	-1213.695068359375	121.5931167602539	639.2711791992189	-1452.710571289062	110.7027893066406	562.5116577148439	-1437.854614257812	147.6627197265625	585.1536254882814	-1463.957763671875	170.8929748535156	330.2425231933595	-1545.685791015625	123.693229675293	269.4359741210939	-1524.783081054688	169.9409484863281	268.0362548828126	-1545.474853515625	110.3393630981445	69.27386474609384	-1465.9375	312.8778686523438	50.89978408813486	-1542.566772460938	235.7758636474609	27.04254722595225	-1621.411254882812	82.50128936767578	640.9655761718751	-965.8260498046875	140.1758880615234	625.30322265625	-912.7014770507812	116.6517181396484	593.9317016601564	-943.0662841796875	129.0146179199219	345.8356323242188	-870.234130859375	151.4107513427734	273.2090759277344	-851.1015625	114.4733428955078	286.1251220703126	-881.0775756835938	88.93663787841797	63.79139328002935	-965.6129760742188	278.2431335449219	48.81502532958989	-867.505859375	188.6871643066406	37.38329315185552	-797.5090942382812	400.113525390625	1216.35009765625	-1194.5400390625	379.5594482421875	1069.582153320312	-1190.77099609375	313.0340270996094	1311.186889648438	-1363.233642578125	198.1050109863281	1196.880004882812	-1453.050415039062	150.2875671386719	1153.234619140625	-1441.257934570312	180.4268188476562	1140.093627929688	-1480.242553710938	155.1397399902344	1072.2978515625	-1550.203857421875	226.5889129638672	1067.148559570312	-1584.708129882812	198.2960510253906	1108.128662109375	-1575.379028320312	256.1159057617188	1187.37939453125	-1614.59228515625	267.4046020507812	1215.605712890625	-1541.833618164062	318.9404296875	1310.590942382812	-1030.148681640625	204.3873748779297	1199.602294921875	-947.6480102539061	179.2301025390625	1145.476928710938	-919.8802490234374	157.3578643798828	1157.566772460938	-965.6985473632811	172.2520751953125	1077.082763671875	-836.4053955078124	175.1645202636719	1156.127197265625	-825.1895141601561	210.3857269287109	1120.789428710938	-814.1284179687499	244.5951843261719	1206.525390625	-793.6334838867186	270.5505676269531	1236.88525390625	-863.3180541992186	
424	2.115	227.6457061767578	1277.254760742188	-2230.270751953125	217.2077484130859	1327.029541015625	-209.9698944091796	492.5350036621094	1499.211669921875	-1182.45947265625	437.8579406738281	1521.458618164062	-1121.506469726562	449.9160766601562	1518.09912109375	-1256.936767578125	264.997802734375	1364.697143554688	-1191.4765625	161.8314056396484	1221.536010742188	-1202.368286132812	146.5489959716797	1193.3564453125	-1222.338012695312	135.6172637939453	1186.619506835938	-1173.636596679688	121.5206909179688	1133.416259765625	-1210.473876953125	102.9051055908203	1078.093872070312	-1211.892333984375	69.68790435791016	1065.375732421875	-1229.37060546875	66.02297973632812	1062.677368164062	-1178.852416992188	36.64051055908203	1011.605163574219	-1209.24560546875	-3.35533618927002	922.3206176757814	-1236.171875	-5.679470539093018	919.8250732421876	-1184.75244140625	-23.2960262298584	862.9086303710939	-1213.720092773438	121.3645172119141	641.4328613281251	-1451.65673828125	109.6232757568359	564.8762207031251	-1436.3486328125	146.8858947753906	586.9749145507814	-1462.5390625	169.3257293701172	330.605682373047	-1544.148681640625	122.4682922363281	269.4444580078126	-1523.542114257812	168.7078857421875	268.391815185547	-1544.275390625	110.299446105957	69.25304412841805	-1465.9404296875	312.8807373046875	50.89440536499033	-1542.55810546875	235.7924957275391	27.07703018188487	-1621.37890625	82.34473419189453	643.3842773437501	-967.02685546875	139.9339752197266	626.7720947265625	-914.0997924804688	115.9943084716797	595.8524169921876	-944.595703125	127.5053100585938	346.1825866699219	-871.9014892578125	150.2684173583984	273.7773132324219	-852.3579711914062	113.2628707885742	286.3371276855469	-882.413818359375	88.89601135253906	63.75403976440435	-965.6061401367188	278.2565002441406	48.80955886840825	-867.5186767578125	188.7037353515625	37.40088272094732	-797.5321044921875	399.8651428222656	1220.821533203125	-1194.404174804688	379.90576171875	1073.99853515625	-1190.606079101562	312.5231628417969	1315.274658203125	-1363.131591796875	197.8415832519531	1200.735473632812	-1452.944702148438	150.1712341308594	1156.9091796875	-1441.158447265625	180.3166809082031	1143.913208007812	-1480.18603515625	155.2241363525391	1076.063598632812	-1550.154418945312	226.6785583496094	1071.112182617188	-1584.667236328125	198.2838745117188	1112.011108398438	-1575.324462890625	255.9061431884766	1191.416625976562	-1614.514770507812	267.1399841308594	1219.648193359375	-1541.739624023438	318.3761901855469	1314.8173828125	-1030.015625	204.1126403808594	1203.53955078125	-947.5620727539061	179.0922393798828	1149.371459960938	-919.7871704101561	157.1972961425781	1161.363159179688	-965.6104125976561	172.3371429443359	1080.961303710938	-836.2585449218749	175.0613708496094	1160.010620117188	-825.0646362304686	210.3713226318359	1124.763549804688	-813.9988403320311	244.3802337646484	1210.578735351562	-793.5292968749999	270.2575378417969	1240.979370117188	-863.2247314453124	
425	2.12	227.2266387939453	1281.1005859375	-2230.167236328125	216.8898315429688	1330.932495117188	-209.869415283203	491.7006225585938	1503.450073242188	-1182.351440429688	437.0019836425781	1525.679809570312	-1121.414184570312	449.0646667480469	1522.296875	-1256.82373046875	264.3668518066406	1368.6328125	-1191.394775390625	161.6429138183594	1224.9033203125	-1202.277587890625	146.4920806884766	1196.560546875	-1222.226806640625	135.5387115478516	1189.796630859375	-1173.551879882812	121.7428970336914	1136.493896484375	-1210.352783203125	103.4092712402344	1081.007568359375	-1211.810546875	70.27841949462891	1068.183715820312	-1229.357055664062	66.62844085693359	1065.45654296875	-1178.842041015625	37.48497772216797	1014.234252929688	-1209.239868164062	-2.048139333724976	925.2416381835939	-1236.154663085938	-4.425681591033936	922.7189941406251	-1184.736938476562	-21.99657821655273	865.8153686523439	-1213.745483398438	121.1215286254883	643.5272827148439	-1450.6064453125	108.5450744628906	567.1785278320314	-1434.842529296875	146.0916595458984	588.7351684570314	-1461.123901367188	167.7436370849609	330.9478149414064	-1542.61279296875	121.2371520996094	269.4332275390626	-1522.296508789062	167.4638519287109	268.7303466796876	-1543.075073242188	110.2615585327148	69.2324981689454	-1465.940185546875	312.8843078613281	50.88908767700205	-1542.548461914062	235.8088073730469	27.10910987854014	-1621.347534179688	82.19975280761719	645.7312011718751	-968.22900390625	139.6931304931641	628.17626953125	-915.501220703125	115.3451232910156	597.7111816406251	-946.124755859375	125.9972076416016	346.5115051269532	-873.5839233398438	149.1183471679688	274.3298645019532	-853.6237182617188	112.0526962280273	286.5353698730469	-883.7670288085938	88.86279296875	63.71348190307623	-965.6011352539062	278.2701721191406	48.80000686645513	-867.5308227539062	188.7204895019531	37.4188842773438	-797.5552978515625	399.619384765625	1225.151245117188	-1194.271850585938	380.2369079589844	1078.279663085938	-1190.4462890625	312.0252990722656	1319.234619140625	-1363.032958984375	197.5840148925781	1204.468139648438	-1452.85009765625	150.0641326904297	1160.467651367188	-1441.067993164062	180.2149658203125	1147.611694335938	-1480.138671875	155.3123321533203	1079.709106445312	-1550.112670898438	226.7734985351562	1074.95361328125	-1584.630249023438	198.2783508300781	1115.771606445312	-1575.276000976562	255.7034606933594	1195.330078125	-1614.441284179688	266.8860473632812	1223.565063476562	-1541.650146484375	317.8280334472656	1318.910522460938	-1029.87890625	203.8469543457031	1207.352661132812	-947.4753417968749	178.9555358886719	1153.146606445312	-919.6932983398436	157.0423889160156	1165.04052734375	-965.5225219726561	172.4176635742188	1084.721923828125	-836.1091918945311	174.9595184326172	1163.773803710938	-824.9388427734374	210.3551483154297	1128.617553710938	-813.8677368164061	244.1694641113281	1214.509521484375	-793.4253540039061	269.9705200195312	1244.946166992188	-863.1310424804686	
